<?xml version="1.0" encoding="UTF-8" standalone="no"?>
<!DOCTYPE svg PUBLIC "-//W3C//DTD SVG 1.1//EN" "http://www.w3.org/Graphics/SVG/1.1/DTD/svg11.dtd">
<svg xmlns="http://www.w3.org/2000/svg" xmlns:xlink="http://www.w3.org/1999/xlink" version="1.1" width="1980.9358pt" height="977.6893pt" viewBox="0 0 1980.9358 977.6893">
<g enable-background="new">
<path transform="matrix(2.7777777,0,0,-2.7777777,0,977.6893)" d="M 0 0 L 713.1369 0 L 713.1369 351.96815 L 0 351.96815 Z " fill="#ffffff"/>
<path transform="matrix(2.7777777,0,0,-2.7777777,0,977.6893)" d="M 118.35625 43.371877 L 698.29629 43.371877 L 698.29629 312.61189 L 118.35625 312.61189 Z " fill="#ffffff"/>
<clipPath id="cp0">
<path transform="matrix(2.7777777,0,0,-2.7777777,0,977.6893)" d="M 118.35625 43.371877 L 698.29629 43.371877 L 698.29629 312.61189 L 118.35625 312.61189 Z "/>
</clipPath>
<g clip-path="url(#cp0)">
<path transform="matrix(2.7777777,0,0,-2.7777777,0,977.6893)" d="M 118.35625 300.3737 L 648.4214 300.3737 L 648.4214 280.39299 L 118.35625 280.39299 Z " fill="#7e99f4"/>
<path transform="matrix(2.7777777,0,0,-2.7777777,0,977.6893)" stroke-width=".7" stroke-linecap="butt" stroke-miterlimit="10" stroke-linejoin="miter" fill="none" stroke="#ffffff" d="M 118.35625 300.3737 L 648.4214 300.3737 L 648.4214 280.39299 L 118.35625 280.39299 Z "/>
</g>
<clipPath id="cp1">
<path transform="matrix(2.7777777,0,0,-2.7777777,0,977.6893)" d="M 118.35625 43.371877 L 698.29629 43.371877 L 698.29629 312.61189 L 118.35625 312.61189 Z "/>
</clipPath>
<g clip-path="url(#cp1)">
<path transform="matrix(2.7777777,0,0,-2.7777777,0,977.6893)" d="M 118.35625 275.39784 L 278.65168 275.39784 L 278.65168 255.41712 L 118.35625 255.41712 Z " fill="#7e99f4"/>
<path transform="matrix(2.7777777,0,0,-2.7777777,0,977.6893)" stroke-width=".7" stroke-linecap="butt" stroke-miterlimit="10" stroke-linejoin="miter" fill="none" stroke="#ffffff" d="M 118.35625 275.39784 L 278.65168 275.39784 L 278.65168 255.41712 L 118.35625 255.41712 Z "/>
</g>
<clipPath id="cp2">
<path transform="matrix(2.7777777,0,0,-2.7777777,0,977.6893)" d="M 118.35625 43.371877 L 698.29629 43.371877 L 698.29629 312.61189 L 118.35625 312.61189 Z "/>
</clipPath>
<g clip-path="url(#cp2)">
<path transform="matrix(2.7777777,0,0,-2.7777777,0,977.6893)" d="M 118.35625 250.42194 L 268.6767 250.42194 L 268.6767 230.44123 L 118.35625 230.44123 Z " fill="#7e99f4"/>
<path transform="matrix(2.7777777,0,0,-2.7777777,0,977.6893)" stroke-width=".7" stroke-linecap="butt" stroke-miterlimit="10" stroke-linejoin="miter" fill="none" stroke="#ffffff" d="M 118.35625 250.42194 L 268.6767 250.42194 L 268.6767 230.44123 L 118.35625 230.44123 Z "/>
</g>
<clipPath id="cp3">
<path transform="matrix(2.7777777,0,0,-2.7777777,0,977.6893)" d="M 118.35625 43.371877 L 698.29629 43.371877 L 698.29629 312.61189 L 118.35625 312.61189 Z "/>
</clipPath>
<g clip-path="url(#cp3)">
<path transform="matrix(2.7777777,0,0,-2.7777777,0,977.6893)" d="M 118.35625 225.44605 L 200.93972 225.44605 L 200.93972 205.46535 L 118.35625 205.46535 Z " fill="#7e99f4"/>
<path transform="matrix(2.7777777,0,0,-2.7777777,0,977.6893)" stroke-width=".7" stroke-linecap="butt" stroke-miterlimit="10" stroke-linejoin="miter" fill="none" stroke="#ffffff" d="M 118.35625 225.44605 L 200.93972 225.44605 L 200.93972 205.46535 L 118.35625 205.46535 Z "/>
</g>
<clipPath id="cp4">
<path transform="matrix(2.7777777,0,0,-2.7777777,0,977.6893)" d="M 118.35625 43.371877 L 698.29629 43.371877 L 698.29629 312.61189 L 118.35625 312.61189 Z "/>
</clipPath>
<g clip-path="url(#cp4)">
<path transform="matrix(2.7777777,0,0,-2.7777777,0,977.6893)" d="M 118.35625 200.47017 L 179.94588 200.47017 L 179.94588 180.48946 L 118.35625 180.48946 Z " fill="#7e99f4"/>
<path transform="matrix(2.7777777,0,0,-2.7777777,0,977.6893)" stroke-width=".7" stroke-linecap="butt" stroke-miterlimit="10" stroke-linejoin="miter" fill="none" stroke="#ffffff" d="M 118.35625 200.47017 L 179.94588 200.47017 L 179.94588 180.48946 L 118.35625 180.48946 Z "/>
</g>
<clipPath id="cp5">
<path transform="matrix(2.7777777,0,0,-2.7777777,0,977.6893)" d="M 118.35625 43.371877 L 698.29629 43.371877 L 698.29629 312.61189 L 118.35625 312.61189 Z "/>
</clipPath>
<g clip-path="url(#cp5)">
<path transform="matrix(2.7777777,0,0,-2.7777777,0,977.6893)" d="M 118.35625 175.4943 L 165.21541 175.4943 L 165.21541 155.51358 L 118.35625 155.51358 Z " fill="#7e99f4"/>
<path transform="matrix(2.7777777,0,0,-2.7777777,0,977.6893)" stroke-width=".7" stroke-linecap="butt" stroke-miterlimit="10" stroke-linejoin="miter" fill="none" stroke="#ffffff" d="M 118.35625 175.4943 L 165.21541 175.4943 L 165.21541 155.51358 L 118.35625 155.51358 Z "/>
</g>
<clipPath id="cp6">
<path transform="matrix(2.7777777,0,0,-2.7777777,0,977.6893)" d="M 118.35625 43.371877 L 698.29629 43.371877 L 698.29629 312.61189 L 118.35625 312.61189 Z "/>
</clipPath>
<g clip-path="url(#cp6)">
<path transform="matrix(2.7777777,0,0,-2.7777777,0,977.6893)" d="M 118.35625 150.5184 L 165.21541 150.5184 L 165.21541 130.5377 L 118.35625 130.5377 Z " fill="#7e99f4"/>
<path transform="matrix(2.7777777,0,0,-2.7777777,0,977.6893)" stroke-width=".7" stroke-linecap="butt" stroke-miterlimit="10" stroke-linejoin="miter" fill="none" stroke="#ffffff" d="M 118.35625 150.5184 L 165.21541 150.5184 L 165.21541 130.5377 L 118.35625 130.5377 Z "/>
</g>
<clipPath id="cp7">
<path transform="matrix(2.7777777,0,0,-2.7777777,0,977.6893)" d="M 118.35625 43.371877 L 698.29629 43.371877 L 698.29629 312.61189 L 118.35625 312.61189 Z "/>
</clipPath>
<g clip-path="url(#cp7)">
<path transform="matrix(2.7777777,0,0,-2.7777777,0,977.6893)" d="M 118.35625 125.54253 L 159.64798 125.54253 L 159.64798 105.56182 L 118.35625 105.56182 Z " fill="#7e99f4"/>
<path transform="matrix(2.7777777,0,0,-2.7777777,0,977.6893)" stroke-width=".7" stroke-linecap="butt" stroke-miterlimit="10" stroke-linejoin="miter" fill="none" stroke="#ffffff" d="M 118.35625 125.54253 L 159.64798 125.54253 L 159.64798 105.56182 L 118.35625 105.56182 Z "/>
</g>
<clipPath id="cp8">
<path transform="matrix(2.7777777,0,0,-2.7777777,0,977.6893)" d="M 118.35625 43.371877 L 698.29629 43.371877 L 698.29629 312.61189 L 118.35625 312.61189 Z "/>
</clipPath>
<g clip-path="url(#cp8)">
<path transform="matrix(2.7777777,0,0,-2.7777777,0,977.6893)" d="M 118.35625 100.56664 L 146.07738 100.56664 L 146.07738 80.58594 L 118.35625 80.58594 Z " fill="#7e99f4"/>
<path transform="matrix(2.7777777,0,0,-2.7777777,0,977.6893)" stroke-width=".7" stroke-linecap="butt" stroke-miterlimit="10" stroke-linejoin="miter" fill="none" stroke="#ffffff" d="M 118.35625 100.56664 L 146.07738 100.56664 L 146.07738 80.58594 L 118.35625 80.58594 Z "/>
</g>
<clipPath id="cp9">
<path transform="matrix(2.7777777,0,0,-2.7777777,0,977.6893)" d="M 118.35625 43.371877 L 698.29629 43.371877 L 698.29629 312.61189 L 118.35625 312.61189 Z "/>
</clipPath>
<g clip-path="url(#cp9)">
<path transform="matrix(2.7777777,0,0,-2.7777777,0,977.6893)" d="M 118.35625 75.59076 L 130.65097 75.59076 L 130.65097 55.610059 L 118.35625 55.610059 Z " fill="#7e99f4"/>
<path transform="matrix(2.7777777,0,0,-2.7777777,0,977.6893)" stroke-width=".7" stroke-linecap="butt" stroke-miterlimit="10" stroke-linejoin="miter" fill="none" stroke="#ffffff" d="M 118.35625 75.59076 L 130.65097 75.59076 L 130.65097 55.610059 L 118.35625 55.610059 Z "/>
</g>
<path transform="matrix(2.7777777,0,0,-2.7777777,0,977.6893)" stroke-width=".8" stroke-linecap="butt" stroke-linejoin="round" fill="none" stroke="#000000" d="M 118.35625 43.371877 L 118.35625 39.871877 "/>
<symbol id="font_a_30">
<path transform="matrix(.001,0,0,.001,-.066,.013)" d="M 318 664 C 267 664 229 639 203 589 C 177 539 165 464 165 364 C 165 264 177 189 203 139 C 229 89 267 64 318 64 C 369 64 407 89 433 139 C 458 189 471 264 471 364 C 471 464 458 539 433 589 C 407 639 369 664 318 664 Z M 318 742 C 399 742 461 709 505 645 C 548 580 570 486 570 364 C 570 241 548 147 505 83 C 461 19 399 -13 317 -13 C 235 -13 173 19 130 83 C 87 147 66 241 66 364 C 66 486 87 580 130 645 C 173 709 236 742 318 742 Z "/>
</symbol>
<use xlink:href="#font_a_30" transform="matrix(33.333333,0,0,-33.333333,320.35539,902.43679)"/>
<path transform="matrix(2.7777777,0,0,-2.7777777,0,977.6893)" stroke-width=".8" stroke-linecap="butt" stroke-linejoin="round" fill="none" stroke="#000000" d="M 234.34426 43.371877 L 234.34426 39.871877 "/>
<symbol id="font_a_31">
<path transform="matrix(.001,0,0,.001,-.11000001,0)" d="M 124 83 L 285 83 L 285 639 L 110 604 L 110 694 L 284 729 L 383 729 L 383 83 L 544 83 L 544 0 L 124 0 L 124 83 Z "/>
</symbol>
<use xlink:href="#font_a_31" transform="matrix(33.333333,0,0,-33.333333,633.399,902.0034)"/>
<use xlink:href="#font_a_30" transform="matrix(33.333333,0,0,-33.333333,653.1323,902.43679)"/>
<path transform="matrix(2.7777777,0,0,-2.7777777,0,977.6893)" stroke-width=".8" stroke-linecap="butt" stroke-linejoin="round" fill="none" stroke="#000000" d="M 350.33226 43.371877 L 350.33226 39.871877 "/>
<symbol id="font_a_32">
<path transform="matrix(.001,0,0,.001,-.07300001,0)" d="M 192 83 L 536 83 L 536 0 L 73 0 L 73 83 C 110 121 161 173 226 239 C 290 304 331 346 348 365 C 380 400 402 430 414 455 C 426 479 433 504 433 528 C 433 566 419 598 392 622 C 365 646 330 659 286 659 C 255 659 222 653 188 643 C 154 632 117 616 78 594 L 78 694 C 118 710 155 722 189 730 C 223 738 255 742 284 742 C 359 742 419 723 464 685 C 509 647 532 597 532 534 C 532 504 526 475 515 449 C 504 422 484 390 454 354 C 446 344 420 317 376 272 C 332 227 271 164 192 83 Z "/>
</symbol>
<use xlink:href="#font_a_32" transform="matrix(33.333333,0,0,-33.333333,954.3545,902.0034)"/>
<use xlink:href="#font_a_30" transform="matrix(33.333333,0,0,-33.333333,975.32119,902.43679)"/>
<path transform="matrix(2.7777777,0,0,-2.7777777,0,977.6893)" stroke-width=".8" stroke-linecap="butt" stroke-linejoin="round" fill="none" stroke="#000000" d="M 466.32026 43.371877 L 466.32026 39.871877 "/>
<symbol id="font_a_33">
<path transform="matrix(.001,0,0,.001,-.076000008,.013)" d="M 406 393 C 453 383 490 362 516 330 C 542 298 556 258 556 212 C 556 140 531 84 482 45 C 432 6 362 -13 271 -13 C 240 -13 208 -10 176 -4 C 144 1 110 10 76 22 L 76 117 C 103 101 133 89 166 81 C 198 73 232 69 268 69 C 330 69 377 81 409 105 C 441 129 458 165 458 212 C 458 254 443 288 413 312 C 383 336 341 349 287 349 L 202 349 L 202 430 L 291 430 C 339 430 376 439 402 459 C 428 478 441 506 441 543 C 441 580 427 609 401 629 C 374 649 336 659 287 659 C 260 659 231 656 200 650 C 169 644 135 635 98 623 L 98 711 C 135 721 170 729 203 734 C 235 739 266 742 296 742 C 370 742 429 725 473 691 C 517 657 539 611 539 553 C 539 513 527 479 504 451 C 481 423 448 403 406 393 Z "/>
</symbol>
<use xlink:href="#font_a_33" transform="matrix(33.333333,0,0,-33.333333,1276.6433,902.43679)"/>
<use xlink:href="#font_a_30" transform="matrix(33.333333,0,0,-33.333333,1297.5099,902.43679)"/>
<path transform="matrix(2.7777777,0,0,-2.7777777,0,977.6893)" stroke-width=".8" stroke-linecap="butt" stroke-linejoin="round" fill="none" stroke="#000000" d="M 582.3082 43.371877 L 582.3082 39.871877 "/>
<symbol id="font_a_34">
<path transform="matrix(.001,0,0,.001,-.049000004,0)" d="M 378 643 L 129 254 L 378 254 L 378 643 Z M 352 729 L 476 729 L 476 254 L 580 254 L 580 172 L 476 172 L 476 0 L 378 0 L 378 172 L 49 172 L 49 267 L 352 729 Z "/>
</symbol>
<use xlink:href="#font_a_34" transform="matrix(33.333333,0,0,-33.333333,1597.9321,902.0034)"/>
<use xlink:href="#font_a_30" transform="matrix(33.333333,0,0,-33.333333,1619.6987,902.43679)"/>
<path transform="matrix(2.7777777,0,0,-2.7777777,0,977.6893)" stroke-width=".8" stroke-linecap="butt" stroke-linejoin="round" fill="none" stroke="#000000" d="M 698.29629 43.371877 L 698.29629 39.871877 "/>
<symbol id="font_a_35">
<path transform="matrix(.001,0,0,.001,-.07700001,.013)" d="M 108 729 L 495 729 L 495 646 L 198 646 L 198 467 C 212 472 227 476 241 478 C 255 480 270 482 284 482 C 365 482 429 459 477 415 C 525 370 549 310 549 234 C 549 155 524 94 475 51 C 426 8 357 -13 269 -13 C 238 -13 207 -10 175 -6 C 143 -1 111 6 77 17 L 77 116 C 106 100 136 88 168 80 C 199 72 232 69 267 69 C 323 69 368 83 401 113 C 433 143 450 183 450 234 C 450 284 433 324 401 354 C 368 384 323 399 267 399 C 241 399 214 396 188 390 C 162 384 135 375 108 363 L 108 729 Z "/>
</symbol>
<use xlink:href="#font_a_35" transform="matrix(33.333333,0,0,-33.333333,1921.0545,902.43679)"/>
<use xlink:href="#font_a_30" transform="matrix(33.333333,0,0,-33.333333,1941.8877,902.43679)"/>
<symbol id="font_a_50">
<path transform="matrix(.001,0,0,.001,-.098000008,0)" d="M 197 648 L 197 374 L 321 374 C 367 374 402 385 427 409 C 452 433 465 467 465 511 C 465 555 452 588 427 612 C 402 636 367 648 321 648 L 197 648 Z M 98 729 L 321 729 C 402 729 464 710 506 673 C 548 636 569 582 569 511 C 569 439 548 384 506 348 C 464 311 402 293 321 293 L 197 293 L 197 0 L 98 0 L 98 729 Z "/>
</symbol>
<symbol id="font_a_65">
<path transform="matrix(.001,0,0,.001,-.055000005,.013)" d="M 562 296 L 562 252 L 149 252 C 153 190 171 142 205 110 C 238 78 284 62 344 62 C 378 62 412 66 444 74 C 476 82 509 95 541 113 L 541 28 C 509 14 476 3 442 -3 C 408 -9 373 -13 339 -13 C 251 -13 182 12 131 62 C 80 112 55 181 55 268 C 55 357 79 428 127 481 C 175 533 241 560 323 560 C 397 560 455 536 498 489 C 540 441 562 377 562 296 Z M 472 322 C 471 371 457 410 431 440 C 404 469 368 484 324 484 C 274 484 234 469 204 441 C 174 413 156 373 152 322 L 472 322 Z "/>
</symbol>
<symbol id="font_a_72">
<path transform="matrix(.001,0,0,.001,-.091000009,0)" d="M 411 463 C 401 469 390 473 378 476 C 366 478 353 480 339 480 C 288 480 249 463 222 430 C 194 397 181 350 181 288 L 181 0 L 91 0 L 91 547 L 181 547 L 181 462 C 199 495 224 520 254 536 C 284 552 321 560 365 560 C 371 560 378 559 386 559 C 393 558 401 557 411 555 L 411 463 Z "/>
</symbol>
<symbol id="font_a_63">
<path transform="matrix(.001,0,0,.001,-.055000005,.013)" d="M 488 526 L 488 442 C 462 456 437 466 411 473 C 385 480 360 484 334 484 C 276 484 230 465 198 428 C 166 391 150 339 150 273 C 150 206 166 154 198 117 C 230 80 276 62 334 62 C 360 62 385 65 411 72 C 437 79 462 90 488 104 L 488 21 C 462 9 436 0 410 -5 C 383 -10 354 -13 324 -13 C 242 -13 176 12 128 64 C 79 115 55 185 55 273 C 55 362 79 432 128 483 C 177 534 244 560 330 560 C 358 560 385 557 411 551 C 437 545 463 537 488 526 Z "/>
</symbol>
<symbol id="font_a_6e">
<path transform="matrix(.001,0,0,.001,-.091000009,0)" d="M 549 330 L 549 0 L 459 0 L 459 327 C 459 379 448 417 428 443 C 408 469 378 482 338 482 C 289 482 251 466 223 435 C 195 404 181 362 181 309 L 181 0 L 91 0 L 91 547 L 181 547 L 181 462 C 202 494 227 519 257 535 C 286 551 320 560 358 560 C 420 560 468 540 500 501 C 532 462 549 405 549 330 Z "/>
</symbol>
<symbol id="font_a_74">
<path transform="matrix(.001,0,0,.001,-.027,0)" d="M 183 702 L 183 547 L 368 547 L 368 477 L 183 477 L 183 180 C 183 135 189 106 201 94 C 213 81 238 75 276 75 L 368 75 L 368 0 L 276 0 C 206 0 158 13 132 39 C 106 65 93 112 93 180 L 93 477 L 27 477 L 27 547 L 93 547 L 93 702 L 183 702 Z "/>
</symbol>
<symbol id="font_a_61">
<path transform="matrix(.001,0,0,.001,-.060000004,.013)" d="M 343 275 C 270 275 220 266 192 250 C 164 233 150 205 150 165 C 150 133 160 107 181 89 C 202 70 231 61 267 61 C 317 61 357 78 387 114 C 417 149 432 196 432 255 L 432 275 L 343 275 Z M 522 312 L 522 0 L 432 0 L 432 83 C 411 49 385 25 355 10 C 325 -5 287 -13 243 -13 C 187 -13 142 2 109 33 C 76 64 60 106 60 159 C 60 220 80 266 122 298 C 163 329 224 345 306 345 L 432 345 L 432 354 C 432 395 418 427 391 450 C 364 472 326 484 277 484 C 245 484 215 480 185 472 C 155 464 127 453 100 439 L 100 522 C 132 534 164 544 195 550 C 226 556 256 560 286 560 C 365 560 424 539 463 498 C 502 457 522 395 522 312 Z "/>
</symbol>
<symbol id="font_a_67">
<path transform="matrix(.001,0,0,.001,-.055000005,.20700002)" d="M 454 280 C 454 344 440 395 414 431 C 387 467 349 485 301 485 C 253 485 215 467 188 431 C 161 395 148 344 148 280 C 148 215 161 165 188 129 C 215 93 253 75 301 75 C 349 75 387 93 414 129 C 440 165 454 215 454 280 Z M 544 68 C 544 -24 523 -93 482 -139 C 440 -184 377 -207 292 -207 C 260 -207 231 -204 203 -200 C 175 -195 147 -188 121 -178 L 121 -91 C 147 -105 173 -115 199 -122 C 225 -129 251 -133 278 -133 C 336 -133 380 -117 410 -87 C 439 -56 454 -10 454 52 L 454 96 C 435 64 411 40 382 24 C 353 8 319 0 279 0 C 211 0 157 25 116 76 C 75 127 55 195 55 280 C 55 364 75 432 116 483 C 157 534 211 560 279 560 C 319 560 353 552 382 536 C 411 520 435 496 454 464 L 454 547 L 544 547 L 544 68 Z "/>
</symbol>
<use xlink:href="#font_a_50" transform="matrix(38.888887,0,0,-38.888887,1028.6106,949.6163)"/>
<use xlink:href="#font_a_65" transform="matrix(38.888887,0,0,-38.888887,1048.9995,950.1218)"/>
<use xlink:href="#font_a_72" transform="matrix(38.888887,0,0,-38.888887,1074.3162,949.6163)"/>
<use xlink:href="#font_a_63" transform="matrix(38.888887,0,0,-38.888887,1088.0748,950.1218)"/>
<use xlink:href="#font_a_65" transform="matrix(38.888887,0,0,-38.888887,1109.4638,950.1218)"/>
<use xlink:href="#font_a_6e" transform="matrix(38.888887,0,0,-38.888887,1134.7804,949.6163)"/>
<use xlink:href="#font_a_74" transform="matrix(38.888887,0,0,-38.888887,1156.947,949.6163)"/>
<use xlink:href="#font_a_61" transform="matrix(38.888887,0,0,-38.888887,1173.4749,950.1218)"/>
<use xlink:href="#font_a_67" transform="matrix(38.888887,0,0,-38.888887,1197.1193,957.66629)"/>
<use xlink:href="#font_a_65" transform="matrix(38.888887,0,0,-38.888887,1221.8137,950.1218)"/>
<path transform="matrix(2.7777777,0,0,-2.7777777,0,977.6893)" stroke-width=".8" stroke-linecap="butt" stroke-linejoin="round" fill="none" stroke="#000000" d="M 118.35625 290.38334 L 114.85625 290.38334 "/>
<symbol id="font_a_53">
<path transform="matrix(.001,0,0,.001,-.066,.013)" d="M 535 705 L 535 609 C 497 627 462 640 429 649 C 395 657 363 662 333 662 C 279 662 237 651 208 631 C 179 610 165 580 165 542 C 165 510 174 485 194 469 C 213 452 250 439 304 429 L 364 417 C 437 403 491 378 526 343 C 561 307 579 260 579 201 C 579 130 555 77 508 41 C 460 5 391 -13 300 -13 C 265 -13 228 -9 189 -2 C 150 5 110 16 69 32 L 69 134 C 109 111 148 94 186 83 C 224 71 262 66 300 66 C 356 66 399 77 430 99 C 460 121 476 152 476 194 C 476 230 465 258 443 278 C 421 298 385 313 335 323 L 275 335 C 201 349 148 372 115 404 C 82 435 66 478 66 534 C 66 598 88 649 134 686 C 179 723 242 742 322 742 C 356 742 390 739 426 733 C 461 727 497 717 535 705 Z "/>
</symbol>
<symbol id="font_a_6f">
<path transform="matrix(.001,0,0,.001,-.055000005,.013)" d="M 306 484 C 258 484 220 465 192 427 C 164 389 150 338 150 273 C 150 207 163 156 191 118 C 219 80 257 62 306 62 C 354 62 392 80 420 118 C 448 156 462 207 462 273 C 462 337 448 389 420 427 C 392 465 354 484 306 484 Z M 306 560 C 384 560 445 534 490 484 C 534 433 557 363 557 273 C 557 183 534 113 490 63 C 445 12 384 -13 306 -13 C 227 -13 165 12 121 63 C 77 113 55 183 55 273 C 55 363 77 433 121 484 C 165 534 227 560 306 560 Z "/>
</symbol>
<symbol id="font_a_79">
<path transform="matrix(.001,0,0,.001,-.030000002,.20700002)" d="M 322 -50 C 296 -114 271 -157 247 -177 C 223 -197 191 -207 151 -207 L 79 -207 L 79 -132 L 132 -132 C 156 -132 175 -126 189 -114 C 203 -102 218 -75 235 -31 L 251 9 L 30 547 L 125 547 L 296 119 L 467 547 L 562 547 L 322 -50 Z "/>
</symbol>
<symbol id="font_a_6c">
<path transform="matrix(.001,0,0,.001,-.094000007,0)" d="M 94 760 L 184 760 L 184 0 L 94 0 L 94 760 Z "/>
</symbol>
<symbol id="font_a_69">
<path transform="matrix(.001,0,0,.001,-.094000007,0)" d="M 94 547 L 184 547 L 184 0 L 94 0 L 94 547 Z M 94 760 L 184 760 L 184 646 L 94 646 L 94 760 Z "/>
</symbol>
<use xlink:href="#font_a_53" transform="matrix(33.333333,0,0,-33.333333,119.76944,184.17586)"/>
<use xlink:href="#font_a_74" transform="matrix(33.333333,0,0,-33.333333,139.63611,183.74253)"/>
<use xlink:href="#font_a_6f" transform="matrix(33.333333,0,0,-33.333333,153.63611,184.17586)"/>
<use xlink:href="#font_a_72" transform="matrix(33.333333,0,0,-33.333333,175.23613,183.74253)"/>
<use xlink:href="#font_a_79" transform="matrix(33.333333,0,0,-33.333333,186.90277,190.64252)"/>
<use xlink:href="#font_a_74" transform="matrix(33.333333,0,0,-33.333333,206.5361,183.74253)"/>
<use xlink:href="#font_a_65" transform="matrix(33.333333,0,0,-33.333333,220.53612,184.17586)"/>
<use xlink:href="#font_a_6c" transform="matrix(33.333333,0,0,-33.333333,242.33612,183.74253)"/>
<use xlink:href="#font_a_6c" transform="matrix(33.333333,0,0,-33.333333,251.6028,183.74253)"/>
<use xlink:href="#font_a_69" transform="matrix(33.333333,0,0,-33.333333,260.86949,183.74253)"/>
<use xlink:href="#font_a_6e" transform="matrix(33.333333,0,0,-33.333333,270.03614,183.74253)"/>
<use xlink:href="#font_a_67" transform="matrix(33.333333,0,0,-33.333333,289.96946,190.64252)"/>
<path transform="matrix(2.7777777,0,0,-2.7777777,0,977.6893)" stroke-width=".8" stroke-linecap="butt" stroke-linejoin="round" fill="none" stroke="#000000" d="M 118.35625 265.40748 L 114.85625 265.40748 "/>
<symbol id="font_a_45">
<path transform="matrix(.001,0,0,.001,-.098000008,0)" d="M 98 729 L 559 729 L 559 646 L 197 646 L 197 430 L 544 430 L 544 347 L 197 347 L 197 83 L 568 83 L 568 0 L 98 0 L 98 729 Z "/>
</symbol>
<symbol id="font_a_6d">
<path transform="matrix(.001,0,0,.001,-.091000009,0)" d="M 520 442 C 542 482 569 511 600 531 C 631 550 668 560 711 560 C 767 560 811 540 842 500 C 873 460 889 403 889 330 L 889 0 L 799 0 L 799 327 C 799 379 789 418 771 444 C 752 469 724 482 686 482 C 639 482 602 466 575 435 C 548 404 535 362 535 309 L 535 0 L 445 0 L 445 327 C 445 379 435 418 417 444 C 398 469 369 482 331 482 C 285 482 248 466 221 435 C 194 404 181 362 181 309 L 181 0 L 91 0 L 91 547 L 181 547 L 181 462 C 201 495 226 520 255 536 C 283 552 317 560 357 560 C 397 560 430 550 458 530 C 486 510 506 480 520 442 Z "/>
</symbol>
<use xlink:href="#font_a_45" transform="matrix(33.333333,0,0,-33.333333,72.00799,253.1199)"/>
<use xlink:href="#font_a_6e" transform="matrix(33.333333,0,0,-33.333333,92.84132,253.1199)"/>
<use xlink:href="#font_a_74" transform="matrix(33.333333,0,0,-33.333333,111.84132,253.1199)"/>
<use xlink:href="#font_a_65" transform="matrix(33.333333,0,0,-33.333333,125.84132,253.55324)"/>
<use xlink:href="#font_a_72" transform="matrix(33.333333,0,0,-33.333333,147.54134,253.1199)"/>
<use xlink:href="#font_a_74" transform="matrix(33.333333,0,0,-33.333333,159.10797,253.1199)"/>
<use xlink:href="#font_a_61" transform="matrix(33.333333,0,0,-33.333333,173.27466,253.55324)"/>
<use xlink:href="#font_a_69" transform="matrix(33.333333,0,0,-33.333333,194.84131,253.1199)"/>
<use xlink:href="#font_a_6e" transform="matrix(33.333333,0,0,-33.333333,204.008,253.1199)"/>
<use xlink:href="#font_a_6d" transform="matrix(33.333333,0,0,-33.333333,225.14134,253.1199)"/>
<use xlink:href="#font_a_65" transform="matrix(33.333333,0,0,-33.333333,256.40803,253.55324)"/>
<use xlink:href="#font_a_6e" transform="matrix(33.333333,0,0,-33.333333,278.10798,253.1199)"/>
<use xlink:href="#font_a_74" transform="matrix(33.333333,0,0,-33.333333,297.108,253.1199)"/>
<path transform="matrix(2.7777777,0,0,-2.7777777,0,977.6893)" stroke-width=".8" stroke-linecap="butt" stroke-linejoin="round" fill="none" stroke="#000000" d="M 118.35625 240.43158 L 114.85625 240.43158 "/>
<symbol id="font_a_44">
<path transform="matrix(.001,0,0,.001,-.098000008,0)" d="M 197 648 L 197 81 L 316 81 C 416 81 490 103 537 149 C 583 195 607 267 607 365 C 607 463 583 534 537 580 C 490 625 416 648 316 648 L 197 648 Z M 98 729 L 301 729 C 442 729 546 699 612 641 C 678 582 711 490 711 365 C 711 239 677 147 611 88 C 545 29 441 0 301 0 L 98 0 L 98 729 Z "/>
</symbol>
<use xlink:href="#font_a_44" transform="matrix(33.333333,0,0,-33.333333,199.87255,322.49739)"/>
<use xlink:href="#font_a_72" transform="matrix(33.333333,0,0,-33.333333,225.3059,322.49739)"/>
<use xlink:href="#font_a_61" transform="matrix(33.333333,0,0,-33.333333,237.97255,322.9307)"/>
<use xlink:href="#font_a_6d" transform="matrix(33.333333,0,0,-33.333333,259.4392,322.49739)"/>
<use xlink:href="#font_a_61" transform="matrix(33.333333,0,0,-33.333333,290.87257,322.9307)"/>
<path transform="matrix(2.7777777,0,0,-2.7777777,0,977.6893)" stroke-width=".8" stroke-linecap="butt" stroke-linejoin="round" fill="none" stroke="#000000" d="M 118.35625 215.4557 L 114.85625 215.4557 "/>
<symbol id="font_a_43">
<path transform="matrix(.001,0,0,.001,-.056,.013)" d="M 644 673 L 644 569 C 610 599 575 622 537 638 C 499 653 460 661 418 661 C 334 661 270 635 226 584 C 182 533 160 460 160 364 C 160 268 182 194 226 143 C 270 92 334 67 418 67 C 460 67 499 74 537 90 C 575 105 610 128 644 159 L 644 56 C 609 32 572 15 534 4 C 496 -7 455 -13 412 -13 C 302 -13 215 20 151 87 C 87 154 56 246 56 364 C 56 481 87 573 151 641 C 215 708 302 742 412 742 C 456 742 497 736 535 725 C 573 713 610 696 644 673 Z "/>
</symbol>
<symbol id="font_a_75">
<path transform="matrix(.001,0,0,.001,-.085,.013)" d="M 85 216 L 85 547 L 175 547 L 175 219 C 175 167 185 129 205 103 C 225 77 255 64 296 64 C 344 64 383 79 411 110 C 439 141 453 183 453 237 L 453 547 L 543 547 L 543 0 L 453 0 L 453 84 C 431 50 405 26 377 10 C 348 -5 315 -13 277 -13 C 214 -13 166 6 134 45 C 101 83 85 140 85 216 Z M 311 560 L 311 560 Z "/>
</symbol>
<use xlink:href="#font_a_43" transform="matrix(33.333333,0,0,-33.333333,189.792,392.30818)"/>
<use xlink:href="#font_a_75" transform="matrix(33.333333,0,0,-33.333333,214.02533,392.30818)"/>
<use xlink:href="#font_a_6c" transform="matrix(33.333333,0,0,-33.333333,235.45867,391.87486)"/>
<use xlink:href="#font_a_74" transform="matrix(33.333333,0,0,-33.333333,242.492,391.87486)"/>
<use xlink:href="#font_a_75" transform="matrix(33.333333,0,0,-33.333333,257.492,392.30818)"/>
<use xlink:href="#font_a_72" transform="matrix(33.333333,0,0,-33.333333,278.82533,391.87486)"/>
<use xlink:href="#font_a_65" transform="matrix(33.333333,0,0,-33.333333,290.6309,392.30818)"/>
<path transform="matrix(2.7777777,0,0,-2.7777777,0,977.6893)" stroke-width=".8" stroke-linecap="butt" stroke-linejoin="round" fill="none" stroke="#000000" d="M 118.35625 190.47982 L 114.85625 190.47982 "/>
<symbol id="font_a_56">
<path transform="matrix(.001,0,0,.001,-.008,0)" d="M 286 0 L 8 729 L 111 729 L 342 115 L 573 729 L 676 729 L 398 0 L 286 0 Z "/>
</symbol>
<use xlink:href="#font_a_56" transform="matrix(33.333333,0,0,-33.333333,235.97846,461.2523)"/>
<use xlink:href="#font_a_6c" transform="matrix(33.333333,0,0,-33.333333,261.6451,461.2523)"/>
<use xlink:href="#font_a_6f" transform="matrix(33.333333,0,0,-33.333333,269.6118,461.6856)"/>
<use xlink:href="#font_a_67" transform="matrix(33.333333,0,0,-33.333333,290.0118,468.15229)"/>
<path transform="matrix(2.7777777,0,0,-2.7777777,0,977.6893)" stroke-width=".8" stroke-linecap="butt" stroke-linejoin="round" fill="none" stroke="#000000" d="M 118.35625 165.50394 L 114.85625 165.50394 "/>
<use xlink:href="#font_a_43" transform="matrix(33.333333,0,0,-33.333333,93.95868,531.06307)"/>
<use xlink:href="#font_a_6f" transform="matrix(33.333333,0,0,-33.333333,117.19201,531.06307)"/>
<use xlink:href="#font_a_6d" transform="matrix(33.333333,0,0,-33.333333,138.79203,530.6297)"/>
<use xlink:href="#font_a_6d" transform="matrix(33.333333,0,0,-33.333333,171.25868,530.6297)"/>
<use xlink:href="#font_a_65" transform="matrix(33.333333,0,0,-33.333333,202.52535,531.06307)"/>
<use xlink:href="#font_a_6e" transform="matrix(33.333333,0,0,-33.333333,224.22536,530.6297)"/>
<use xlink:href="#font_a_74" transform="matrix(33.333333,0,0,-33.333333,243.22533,530.6297)"/>
<use xlink:href="#font_a_61" transform="matrix(33.333333,0,0,-33.333333,257.39204,531.06307)"/>
<use xlink:href="#font_a_72" transform="matrix(33.333333,0,0,-33.333333,278.85868,530.6297)"/>
<use xlink:href="#font_a_79" transform="matrix(33.333333,0,0,-33.333333,290.52534,537.5297)"/>
<path transform="matrix(2.7777777,0,0,-2.7777777,0,977.6893)" stroke-width=".8" stroke-linecap="butt" stroke-linejoin="round" fill="none" stroke="#000000" d="M 118.35625 140.52805 L 114.85625 140.52805 "/>
<symbol id="font_a_64">
<path transform="matrix(.001,0,0,.001,-.055000005,.013)" d="M 454 464 L 454 760 L 544 760 L 544 0 L 454 0 L 454 82 C 435 49 411 25 382 10 C 353 -5 319 -13 279 -13 C 213 -13 159 13 117 65 C 75 117 55 187 55 273 C 55 359 75 428 117 481 C 159 533 213 560 279 560 C 319 560 353 552 382 536 C 411 520 435 496 454 464 Z M 148 273 C 148 207 161 155 188 117 C 215 79 252 61 300 61 C 348 61 385 79 413 117 C 440 155 454 207 454 273 C 454 339 440 390 413 428 C 385 466 348 485 300 485 C 252 485 215 466 188 428 C 161 390 148 339 148 273 Z "/>
</symbol>
<use xlink:href="#font_a_45" transform="matrix(33.333333,0,0,-33.333333,146.61736,600.0072)"/>
<use xlink:href="#font_a_64" transform="matrix(33.333333,0,0,-33.333333,166.25069,600.44058)"/>
<use xlink:href="#font_a_75" transform="matrix(33.333333,0,0,-33.333333,188.41736,600.44058)"/>
<use xlink:href="#font_a_63" transform="matrix(33.333333,0,0,-33.333333,208.55069,600.44058)"/>
<use xlink:href="#font_a_61" transform="matrix(33.333333,0,0,-33.333333,227.05069,600.44058)"/>
<use xlink:href="#font_a_74" transform="matrix(33.333333,0,0,-33.333333,246.38402,600.0072)"/>
<use xlink:href="#font_a_69" transform="matrix(33.333333,0,0,-33.333333,261.68403,600.0072)"/>
<use xlink:href="#font_a_6f" transform="matrix(33.333333,0,0,-33.333333,269.6507,600.44058)"/>
<use xlink:href="#font_a_6e" transform="matrix(33.333333,0,0,-33.333333,291.25068,600.0072)"/>
<path transform="matrix(2.7777777,0,0,-2.7777777,0,977.6893)" stroke-width=".8" stroke-linecap="butt" stroke-linejoin="round" fill="none" stroke="#000000" d="M 118.35625 115.55217 L 114.85625 115.55217 "/>
<symbol id="font_a_73">
<path transform="matrix(.001,0,0,.001,-.054,.013)" d="M 443 531 L 443 446 C 417 458 391 468 364 475 C 336 481 308 485 279 485 C 234 485 200 478 178 464 C 156 450 145 430 145 403 C 145 382 153 366 169 354 C 185 342 217 330 265 320 L 296 313 C 360 299 405 279 432 255 C 458 230 472 195 472 151 C 472 100 452 60 412 31 C 372 1 316 -13 246 -13 C 216 -13 186 -10 154 -5 C 122 0 89 8 54 20 L 54 113 C 87 95 120 82 152 74 C 184 65 216 61 248 61 C 290 61 323 68 346 82 C 368 96 380 117 380 144 C 380 168 371 187 355 200 C 339 213 303 226 247 238 L 216 245 C 160 257 119 275 95 299 C 70 323 58 356 58 399 C 58 450 76 490 112 518 C 148 546 200 560 268 560 C 301 560 332 557 362 552 C 391 547 418 540 443 531 Z "/>
</symbol>
<use xlink:href="#font_a_50" transform="matrix(33.333333,0,0,-33.333333,182.77185,669.3846)"/>
<use xlink:href="#font_a_6f" transform="matrix(33.333333,0,0,-33.333333,200.26665,669.81796)"/>
<use xlink:href="#font_a_64" transform="matrix(33.333333,0,0,-33.333333,220.66664,669.81796)"/>
<use xlink:href="#font_a_63" transform="matrix(33.333333,0,0,-33.333333,241.83332,669.81796)"/>
<use xlink:href="#font_a_61" transform="matrix(33.333333,0,0,-33.333333,260.3333,669.81796)"/>
<use xlink:href="#font_a_73" transform="matrix(33.333333,0,0,-33.333333,280.56666,669.81796)"/>
<use xlink:href="#font_a_74" transform="matrix(33.333333,0,0,-33.333333,297.0333,669.3846)"/>
<path transform="matrix(2.7777777,0,0,-2.7777777,0,977.6893)" stroke-width=".8" stroke-linecap="butt" stroke-linejoin="round" fill="none" stroke="#000000" d="M 118.35625 90.576297 L 114.85625 90.576297 "/>
<symbol id="font_a_4e">
<path transform="matrix(.001,0,0,.001,-.098000008,0)" d="M 98 729 L 231 729 L 554 119 L 554 729 L 650 729 L 650 0 L 517 0 L 194 610 L 194 0 L 98 0 L 98 729 Z "/>
</symbol>
<symbol id="font_a_77">
<path transform="matrix(.001,0,0,.001,-.042000005,0)" d="M 42 547 L 132 547 L 244 120 L 356 547 L 462 547 L 574 120 L 686 547 L 776 547 L 633 0 L 527 0 L 409 448 L 291 0 L 185 0 L 42 547 Z "/>
</symbol>
<use xlink:href="#font_a_4e" transform="matrix(33.333333,0,0,-33.333333,222.4854,738.762)"/>
<use xlink:href="#font_a_65" transform="matrix(33.333333,0,0,-33.333333,245.9854,739.1954)"/>
<use xlink:href="#font_a_77" transform="matrix(33.333333,0,0,-33.333333,266.05207,738.762)"/>
<use xlink:href="#font_a_73" transform="matrix(33.333333,0,0,-33.333333,293.71873,739.1954)"/>
<path transform="matrix(2.7777777,0,0,-2.7777777,0,977.6893)" stroke-width=".8" stroke-linecap="butt" stroke-linejoin="round" fill="none" stroke="#000000" d="M 118.35625 65.60041 L 114.85625 65.60041 "/>
<symbol id="font_a_4f">
<path transform="matrix(.001,0,0,.001,-.056,.013)" d="M 394 662 C 322 662 265 635 223 582 C 181 528 160 456 160 364 C 160 272 181 199 223 146 C 265 92 322 66 394 66 C 465 66 522 92 564 146 C 606 199 627 272 627 364 C 627 456 606 528 564 582 C 522 635 465 662 394 662 Z M 394 742 C 496 742 577 707 639 639 C 700 571 731 479 731 364 C 731 248 700 157 639 89 C 577 21 496 -13 394 -13 C 291 -13 209 21 148 89 C 86 157 56 248 56 364 C 56 479 86 571 148 639 C 209 707 291 742 394 742 Z "/>
</symbol>
<symbol id="font_a_68">
<path transform="matrix(.001,0,0,.001,-.091000009,0)" d="M 549 330 L 549 0 L 459 0 L 459 327 C 459 379 448 417 428 443 C 408 469 378 482 338 482 C 289 482 251 466 223 435 C 195 404 181 362 181 309 L 181 0 L 91 0 L 91 760 L 181 760 L 181 462 C 202 494 227 519 257 535 C 286 551 320 560 358 560 C 420 560 468 540 500 501 C 532 462 549 405 549 330 Z "/>
</symbol>
<use xlink:href="#font_a_4f" transform="matrix(33.333333,0,0,-33.333333,216.48471,808.5729)"/>
<use xlink:href="#font_a_74" transform="matrix(33.333333,0,0,-33.333333,241.75138,808.1395)"/>
<use xlink:href="#font_a_68" transform="matrix(33.333333,0,0,-33.333333,256.9514,808.1395)"/>
<use xlink:href="#font_a_65" transform="matrix(33.333333,0,0,-33.333333,276.88475,808.5729)"/>
<use xlink:href="#font_a_72" transform="matrix(33.333333,0,0,-33.333333,298.58473,808.1395)"/>
<use xlink:href="#font_a_44" transform="matrix(0,-38.888887,-38.888887,-0,49.557294,565.0466)"/>
<use xlink:href="#font_a_6f" transform="matrix(0,-38.888887,-38.888887,-0,50.062849,536.7743)"/>
<use xlink:href="#font_a_6d" transform="matrix(0,-38.888887,-38.888887,-0,49.557294,511.57435)"/>
<use xlink:href="#font_a_61" transform="matrix(0,-38.888887,-38.888887,-0,50.062849,474.9021)"/>
<use xlink:href="#font_a_69" transform="matrix(0,-38.888887,-38.888887,-0,49.557294,449.741)"/>
<use xlink:href="#font_a_6e" transform="matrix(0,-38.888887,-38.888887,-0,49.557294,439.04658)"/>
<use xlink:href="#font_a_73" transform="matrix(0,-38.888887,-38.888887,-0,50.062849,415.82987)"/>
<path transform="matrix(2.7777777,0,0,-2.7777777,0,977.6893)" stroke-width=".8" stroke-linecap="square" stroke-miterlimit="10" stroke-linejoin="miter" fill="none" stroke="#000000" d="M 118.35625 43.371877 L 118.35625 312.61189 "/>
<path transform="matrix(2.7777777,0,0,-2.7777777,0,977.6893)" stroke-width=".8" stroke-linecap="square" stroke-miterlimit="10" stroke-linejoin="miter" fill="none" stroke="#000000" d="M 118.35625 43.371877 L 698.29629 43.371877 "/>
<symbol id="font_a_2e">
<path transform="matrix(.001,0,0,.001,-.10700001,0)" d="M 107 124 L 210 124 L 210 0 L 107 0 L 107 124 Z "/>
</symbol>
<symbol id="font_a_37">
<path transform="matrix(.001,0,0,.001,-.082,0)" d="M 82 729 L 551 729 L 551 687 L 286 0 L 183 0 L 432 646 L 82 646 L 82 729 Z "/>
</symbol>
<symbol id="font_a_25">
<path transform="matrix(.001,0,0,.001,-.055000005,.013)" d="M 727 321 C 699 321 676 309 660 285 C 644 261 636 227 636 184 C 636 142 644 108 660 84 C 676 60 699 48 727 48 C 755 48 777 60 793 84 C 809 108 817 142 817 184 C 817 226 809 260 793 284 C 777 308 755 321 727 321 Z M 727 383 C 778 383 819 365 849 329 C 879 293 895 244 895 184 C 895 123 879 75 849 40 C 819 4 778 -13 727 -13 C 675 -13 633 4 603 40 C 573 75 558 123 558 184 C 558 245 573 293 603 329 C 633 365 675 383 727 383 Z M 223 680 C 195 680 173 667 157 643 C 141 619 133 586 133 544 C 133 500 141 467 157 443 C 173 419 195 407 223 407 C 251 407 274 419 290 443 C 306 467 314 500 314 544 C 314 586 305 619 289 643 C 273 667 251 680 223 680 Z M 664 742 L 742 742 L 286 -13 L 208 -13 L 664 742 Z M 223 742 C 274 742 315 724 346 688 C 376 652 392 604 392 544 C 392 482 376 434 346 398 C 316 362 275 345 223 345 C 171 345 130 362 100 398 C 70 434 55 482 55 544 C 55 604 70 652 100 688 C 130 724 171 742 223 742 Z "/>
</symbol>
<use xlink:href="#font_a_34" transform="matrix(33.333333,0,0,-33.333333,1818.9133,180.2703)"/>
<use xlink:href="#font_a_35" transform="matrix(33.333333,0,0,-33.333333,1841.0466,180.70363)"/>
<use xlink:href="#font_a_2e" transform="matrix(33.333333,0,0,-33.333333,1863.2467,180.2703)"/>
<use xlink:href="#font_a_37" transform="matrix(33.333333,0,0,-33.333333,1873.0133,180.2703)"/>
<use xlink:href="#font_a_25" transform="matrix(33.333333,0,0,-33.333333,1893.3134,180.70363)"/>
<symbol id="font_a_38">
<path transform="matrix(.001,0,0,.001,-.068,.013)" d="M 318 346 C 271 346 234 333 207 308 C 180 283 167 249 167 205 C 167 161 180 126 207 101 C 234 76 271 64 318 64 C 364 64 401 76 428 102 C 455 127 469 161 469 205 C 469 249 455 283 429 308 C 402 333 365 346 318 346 Z M 219 388 C 177 398 144 418 120 447 C 96 476 85 511 85 553 C 85 611 105 657 147 691 C 188 725 245 742 318 742 C 390 742 447 725 489 691 C 530 657 551 611 551 553 C 551 511 539 476 515 447 C 491 418 459 398 417 388 C 464 377 501 355 528 323 C 554 291 568 251 568 205 C 568 134 546 80 503 43 C 459 5 397 -13 317 -13 C 237 -13 175 5 132 43 C 89 80 68 134 68 205 C 68 251 81 291 108 323 C 134 355 171 377 219 388 Z M 183 544 C 183 506 194 476 218 455 C 242 434 275 424 318 424 C 360 424 393 434 417 455 C 441 476 453 506 453 544 C 453 582 441 611 417 632 C 393 653 360 664 318 664 C 275 664 242 653 218 632 C 194 611 183 582 183 544 Z "/>
</symbol>
<use xlink:href="#font_a_31" transform="matrix(33.333333,0,0,-33.333333,793.80856,249.64768)"/>
<use xlink:href="#font_a_33" transform="matrix(33.333333,0,0,-33.333333,813.8752,250.08101)"/>
<use xlink:href="#font_a_2e" transform="matrix(33.333333,0,0,-33.333333,836.1085,249.64768)"/>
<use xlink:href="#font_a_38" transform="matrix(33.333333,0,0,-33.333333,845.4085,250.08101)"/>
<use xlink:href="#font_a_25" transform="matrix(33.333333,0,0,-33.333333,866.1752,250.08101)"/>
<use xlink:href="#font_a_31" transform="matrix(33.333333,0,0,-33.333333,766.1003,319.02516)"/>
<use xlink:href="#font_a_33" transform="matrix(33.333333,0,0,-33.333333,786.16696,319.45848)"/>
<use xlink:href="#font_a_2e" transform="matrix(33.333333,0,0,-33.333333,808.40029,319.02516)"/>
<use xlink:href="#font_a_30" transform="matrix(33.333333,0,0,-33.333333,817.6336,319.45848)"/>
<use xlink:href="#font_a_25" transform="matrix(33.333333,0,0,-33.333333,838.4669,319.45848)"/>
<use xlink:href="#font_a_37" transform="matrix(33.333333,0,0,-33.333333,577.0086,388.40263)"/>
<use xlink:href="#font_a_2e" transform="matrix(33.333333,0,0,-33.333333,599.04196,388.40263)"/>
<use xlink:href="#font_a_31" transform="matrix(33.333333,0,0,-33.333333,609.74197,388.40263)"/>
<use xlink:href="#font_a_25" transform="matrix(33.333333,0,0,-33.333333,629.1086,388.83595)"/>
<use xlink:href="#font_a_35" transform="matrix(33.333333,0,0,-33.333333,518.52578,458.21339)"/>
<use xlink:href="#font_a_2e" transform="matrix(33.333333,0,0,-33.333333,540.72579,457.78007)"/>
<use xlink:href="#font_a_33" transform="matrix(33.333333,0,0,-33.333333,550.2924,458.21339)"/>
<use xlink:href="#font_a_25" transform="matrix(33.333333,0,0,-33.333333,570.7924,458.21339)"/>
<use xlink:href="#font_a_34" transform="matrix(33.333333,0,0,-33.333333,476.67445,527.1575)"/>
<use xlink:href="#font_a_2e" transform="matrix(33.333333,0,0,-33.333333,499.8078,527.1575)"/>
<use xlink:href="#font_a_30" transform="matrix(33.333333,0,0,-33.333333,509.0411,527.5908)"/>
<use xlink:href="#font_a_25" transform="matrix(33.333333,0,0,-33.333333,529.87448,527.5908)"/>
<use xlink:href="#font_a_34" transform="matrix(33.333333,0,0,-33.333333,476.67445,596.535)"/>
<use xlink:href="#font_a_2e" transform="matrix(33.333333,0,0,-33.333333,499.8078,596.535)"/>
<use xlink:href="#font_a_30" transform="matrix(33.333333,0,0,-33.333333,509.0411,596.9683)"/>
<use xlink:href="#font_a_25" transform="matrix(33.333333,0,0,-33.333333,529.87448,596.9683)"/>
<symbol id="font_a_36">
<path transform="matrix(.001,0,0,.001,-.07,.013)" d="M 330 404 C 286 404 251 388 225 358 C 199 328 186 286 186 234 C 186 181 199 139 225 109 C 251 79 286 64 330 64 C 374 64 409 79 435 109 C 461 139 474 181 474 234 C 474 286 461 328 435 358 C 409 388 374 404 330 404 Z M 526 713 L 526 623 C 501 635 476 644 451 650 C 425 656 400 659 376 659 C 310 659 260 637 226 593 C 192 549 172 482 168 394 C 187 422 211 444 240 459 C 269 474 301 482 336 482 C 409 482 467 459 509 415 C 551 371 573 310 573 234 C 573 159 550 99 506 54 C 462 9 403 -13 330 -13 C 246 -13 181 19 137 83 C 92 147 70 241 70 364 C 70 479 97 571 152 639 C 206 707 280 742 372 742 C 396 742 421 739 447 735 C 472 730 498 723 526 713 Z "/>
</symbol>
<use xlink:href="#font_a_33" transform="matrix(33.333333,0,0,-33.333333,462.10935,666.34579)"/>
<use xlink:href="#font_a_2e" transform="matrix(33.333333,0,0,-33.333333,484.3427,665.9124)"/>
<use xlink:href="#font_a_36" transform="matrix(33.333333,0,0,-33.333333,493.70936,666.34579)"/>
<use xlink:href="#font_a_25" transform="matrix(33.333333,0,0,-33.333333,514.40939,666.34579)"/>
<use xlink:href="#font_a_32" transform="matrix(33.333333,0,0,-33.333333,424.31327,735.2898)"/>
<use xlink:href="#font_a_2e" transform="matrix(33.333333,0,0,-33.333333,446.64665,735.2898)"/>
<use xlink:href="#font_a_34" transform="matrix(33.333333,0,0,-33.333333,455.31327,735.2898)"/>
<use xlink:href="#font_a_25" transform="matrix(33.333333,0,0,-33.333333,476.7133,735.72317)"/>
<use xlink:href="#font_a_31" transform="matrix(33.333333,0,0,-33.333333,382.69548,804.6673)"/>
<use xlink:href="#font_a_2e" transform="matrix(33.333333,0,0,-33.333333,403.7955,804.6673)"/>
<use xlink:href="#font_a_31" transform="matrix(33.333333,0,0,-33.333333,414.49546,804.6673)"/>
<use xlink:href="#font_a_25" transform="matrix(33.333333,0,0,-33.333333,433.86216,805.10067)"/>
<symbol id="font_a_20">
</symbol>
<symbol id="font_a_62">
<path transform="matrix(.001,0,0,.001,-.091000009,.013)" d="M 487 273 C 487 339 473 390 446 428 C 418 466 381 485 334 485 C 286 485 249 466 222 428 C 194 390 181 339 181 273 C 181 207 194 155 222 117 C 249 79 286 61 334 61 C 381 61 418 79 446 117 C 473 155 487 207 487 273 Z M 181 464 C 199 496 223 520 252 536 C 281 552 316 560 356 560 C 422 560 476 533 518 481 C 559 428 580 359 580 273 C 580 187 559 117 518 65 C 476 13 422 -13 356 -13 C 316 -13 281 -5 252 10 C 223 25 199 49 181 82 L 181 0 L 91 0 L 91 760 L 181 760 L 181 464 Z "/>
</symbol>
<use xlink:href="#font_a_44" transform="matrix(44.444444,0,0,-44.444444,915.5048,53.76739)"/>
<use xlink:href="#font_a_6f" transform="matrix(44.444444,0,0,-44.444444,947.816,54.34517)"/>
<use xlink:href="#font_a_6d" transform="matrix(44.444444,0,0,-44.444444,976.61599,53.76739)"/>
<use xlink:href="#font_a_61" transform="matrix(44.444444,0,0,-44.444444,1018.5271,54.34517)"/>
<use xlink:href="#font_a_69" transform="matrix(44.444444,0,0,-44.444444,1047.2826,53.76739)"/>
<use xlink:href="#font_a_6e" transform="matrix(44.444444,0,0,-44.444444,1059.5049,53.76739)"/>
<use xlink:href="#font_a_20" transform="matrix(44.444444,0,0,-44.444444,1083.6382,53.76739)"/>
<use xlink:href="#font_a_44" transform="matrix(44.444444,0,0,-44.444444,1102.1271,53.76739)"/>
<use xlink:href="#font_a_69" transform="matrix(44.444444,0,0,-44.444444,1136.1715,53.76739)"/>
<use xlink:href="#font_a_73" transform="matrix(44.444444,0,0,-44.444444,1146.7493,54.34517)"/>
<use xlink:href="#font_a_74" transform="matrix(44.444444,0,0,-44.444444,1168.7048,53.76739)"/>
<use xlink:href="#font_a_72" transform="matrix(44.444444,0,0,-44.444444,1188.9714,53.76739)"/>
<use xlink:href="#font_a_69" transform="matrix(44.444444,0,0,-44.444444,1207.3715,53.76739)"/>
<use xlink:href="#font_a_62" transform="matrix(44.444444,0,0,-44.444444,1219.5938,54.34517)"/>
<use xlink:href="#font_a_75" transform="matrix(44.444444,0,0,-44.444444,1247.5493,54.34517)"/>
<use xlink:href="#font_a_74" transform="matrix(44.444444,0,0,-44.444444,1273.1492,53.76739)"/>
<use xlink:href="#font_a_69" transform="matrix(44.444444,0,0,-44.444444,1293.5493,53.76739)"/>
<use xlink:href="#font_a_6f" transform="matrix(44.444444,0,0,-44.444444,1304.1715,54.34517)"/>
<use xlink:href="#font_a_6e" transform="matrix(44.444444,0,0,-44.444444,1332.9716,53.76739)"/>
</g>
</svg>
